<svg width="372" height="125" viewBox="0 0 372 125" fill="none" xmlns="http://www.w3.org/2000/svg">
<path d="M0.916016 53.7336C0.916016 51.0939 3.05587 48.9541 5.69552 48.9541H90.2203C92.86 48.9541 94.9998 51.0939 94.9998 53.7336V102.977C94.9998 105.617 92.86 107.756 90.2203 107.756H5.69551C3.05587 107.756 0.916016 105.617 0.916016 102.977V53.7336Z" fill="#36454F"/>
<path d="M58.5979 83.0174C60.3504 84.0292 60.3504 86.5587 58.5979 87.5705L44.4332 95.7485C42.6807 96.7603 40.4901 95.4955 40.4901 93.4719L40.4901 77.1159C40.4901 75.0923 42.6807 73.8276 44.4332 74.8394L58.5979 83.0174Z" fill="white"/>
<path d="M0.0902241 42.2997C-0.285531 40.8974 0.546679 39.4559 1.94902 39.0802L87.7487 16.0902C89.151 15.7145 90.5924 16.5467 90.9682 17.949L93.2601 26.5024C93.6358 27.9047 92.8036 29.3462 91.4013 29.7219L5.60162 52.7119C4.19928 53.0876 2.75785 52.2554 2.3821 50.8531L0.0902241 42.2997Z" fill="#36454F"/>
<mask id="mask0_3_15" style="mask-type:alpha" maskUnits="userSpaceOnUse" x="0" y="48" width="95" height="16">
<path d="M0.916016 53.7336C0.916016 51.0939 3.05587 48.9541 5.69552 48.9541H90.2203C92.86 48.9541 94.9998 51.0939 94.9998 53.7336V63.0666H0.916016V53.7336Z" fill="#D9D9D9"/>
</mask>
<g mask="url(#mask0_3_15)">
<rect x="2.46997" y="34.1714" width="6.5648" height="30.1537" transform="rotate(9.68476 2.46997 34.1714)" fill="white"/>
<rect x="8.94116" y="35.2758" width="6.5648" height="30.1537" transform="rotate(9.68476 8.94116 35.2758)" fill="#36454F"/>
<rect x="15.4125" y="36.3802" width="6.5648" height="30.1537" transform="rotate(9.68476 15.4125 36.3802)" fill="white"/>
<rect x="21.8837" y="37.4845" width="6.5648" height="30.1537" transform="rotate(9.68476 21.8837 37.4845)" fill="#36454F"/>
<rect x="28.3549" y="38.5889" width="6.5648" height="30.1537" transform="rotate(9.68476 28.3549 38.5889)" fill="white"/>
<rect x="34.8262" y="39.6933" width="6.5648" height="30.1537" transform="rotate(9.68476 34.8262 39.6933)" fill="#36454F"/>
<rect x="41.2974" y="40.7977" width="6.5648" height="30.1537" transform="rotate(9.68476 41.2974 40.7977)" fill="white"/>
<rect x="47.7687" y="41.902" width="6.5648" height="30.1537" transform="rotate(9.68476 47.7687 41.902)" fill="#36454F"/>
<rect x="54.2399" y="43.0064" width="6.5648" height="30.1537" transform="rotate(9.68476 54.2399 43.0064)" fill="white"/>
<rect x="60.7111" y="44.1108" width="6.5648" height="30.1537" transform="rotate(9.68476 60.7111 44.1108)" fill="#36454F"/>
<rect x="67.1824" y="45.2152" width="6.5648" height="30.1537" transform="rotate(9.68476 67.1824 45.2152)" fill="white"/>
<rect x="73.6536" y="46.3196" width="6.5648" height="30.1537" transform="rotate(9.68476 73.6536 46.3196)" fill="#36454F"/>
<rect x="80.1249" y="47.4239" width="6.5648" height="30.1537" transform="rotate(9.68476 80.1249 47.4239)" fill="white"/>
<rect x="86.5961" y="48.5283" width="6.5648" height="30.1537" transform="rotate(9.68476 86.5961 48.5283)" fill="#36454F"/>
<rect x="93.0673" y="49.6327" width="6.5648" height="30.1537" transform="rotate(9.68476 93.0673 49.6327)" fill="white"/>
</g>
<line x1="151.845" y1="0.626619" x2="134.51" y2="123.975" stroke="#36454F" stroke-width="5"/>
<path d="M201.579 47.268L209.895 26.28H220.407V27.72C219.615 27.72 218.967 27.804 218.463 27.972C217.983 28.116 217.611 28.392 217.347 28.8C217.083 29.208 216.903 29.772 216.807 30.492C216.735 31.188 216.699 32.076 216.699 33.156V47.124C216.699 48.324 216.747 49.272 216.843 49.968C216.939 50.664 217.131 51.204 217.419 51.588C217.707 51.972 218.115 52.224 218.643 52.344C219.195 52.464 219.915 52.536 220.803 52.56V54H207.267V52.56C208.155 52.536 208.863 52.464 209.391 52.344C209.943 52.2 210.363 51.948 210.651 51.588C210.963 51.228 211.167 50.724 211.263 50.076C211.359 49.404 211.407 48.504 211.407 47.376V30.528H211.227L201.543 54.36H198.879L188.871 30.528H188.727V47.124C188.727 48.324 188.775 49.272 188.871 49.968C188.967 50.664 189.159 51.204 189.447 51.588C189.735 51.972 190.143 52.224 190.671 52.344C191.223 52.464 191.943 52.536 192.831 52.56V54H181.743V52.56C182.631 52.536 183.351 52.464 183.903 52.344C184.455 52.2 184.875 51.948 185.163 51.588C185.475 51.228 185.679 50.724 185.775 50.076C185.871 49.404 185.919 48.504 185.919 47.376V32.904C185.919 31.896 185.871 31.056 185.775 30.384C185.679 29.712 185.499 29.184 185.235 28.8C184.971 28.392 184.587 28.116 184.083 27.972C183.603 27.804 182.955 27.72 182.139 27.72V26.28H193.047L201.435 47.268H201.579ZM240.237 25.92C242.397 25.92 244.413 26.292 246.285 27.036C248.157 27.78 249.777 28.8 251.145 30.096C252.537 31.392 253.629 32.916 254.421 34.668C255.213 36.42 255.609 38.316 255.609 40.356C255.609 42.3 255.201 44.124 254.385 45.828C253.593 47.532 252.501 49.02 251.109 50.292C249.741 51.54 248.121 52.536 246.249 53.28C244.377 54 242.373 54.36 240.237 54.36C238.101 54.36 236.097 54 234.225 53.28C232.353 52.536 230.721 51.54 229.329 50.292C227.937 49.02 226.845 47.532 226.053 45.828C225.261 44.124 224.865 42.3 224.865 40.356C224.865 38.316 225.261 36.42 226.053 34.668C226.845 32.916 227.925 31.392 229.293 30.096C230.685 28.8 232.317 27.78 234.189 27.036C236.061 26.292 238.077 25.92 240.237 25.92ZM240.237 52.02C241.629 52.02 242.889 51.756 244.017 51.228C245.145 50.676 246.105 49.908 246.897 48.924C247.689 47.916 248.289 46.704 248.697 45.288C249.129 43.848 249.345 42.24 249.345 40.464C249.345 38.592 249.129 36.912 248.697 35.424C248.289 33.912 247.689 32.628 246.897 31.572C246.105 30.492 245.145 29.676 244.017 29.124C242.889 28.548 241.629 28.26 240.237 28.26C238.821 28.26 237.549 28.548 236.421 29.124C235.317 29.676 234.369 30.492 233.577 31.572C232.785 32.628 232.173 33.912 231.741 35.424C231.333 36.912 231.129 38.592 231.129 40.464C231.129 42.24 231.333 43.848 231.741 45.288C232.173 46.704 232.785 47.916 233.577 48.924C234.369 49.908 235.317 50.676 236.421 51.228C237.549 51.756 238.821 52.02 240.237 52.02ZM273.649 47.808L278.329 35.82C278.785 34.644 279.145 33.684 279.409 32.94C279.697 32.196 279.913 31.584 280.057 31.104C280.201 30.624 280.297 30.24 280.345 29.952C280.393 29.664 280.417 29.388 280.417 29.124C280.417 28.548 280.201 28.176 279.769 28.008C279.337 27.816 278.473 27.72 277.177 27.72V26.28H287.401V27.72C285.409 27.72 284.029 28.692 283.261 30.636L273.793 54.36H271.129L262.525 33.336C262.045 32.208 261.613 31.284 261.229 30.564C260.845 29.844 260.437 29.28 260.005 28.872C259.573 28.44 259.093 28.152 258.565 28.008C258.061 27.84 257.461 27.756 256.765 27.756V26.28H270.373V27.756C269.749 27.78 269.221 27.816 268.789 27.864C268.381 27.912 268.057 27.996 267.817 28.116C267.577 28.212 267.409 28.356 267.313 28.548C267.217 28.716 267.169 28.932 267.169 29.196C267.169 29.532 267.229 29.928 267.349 30.384C267.469 30.84 267.649 31.392 267.889 32.04L273.649 47.808ZM302.797 54H289.945V52.56C290.761 52.536 291.409 52.464 291.889 52.344C292.393 52.2 292.777 51.948 293.041 51.588C293.305 51.228 293.485 50.724 293.581 50.076C293.677 49.404 293.725 48.504 293.725 47.376V32.904C293.725 31.896 293.677 31.068 293.581 30.42C293.509 29.748 293.353 29.22 293.113 28.836C292.873 28.452 292.525 28.188 292.069 28.044C291.637 27.876 291.049 27.768 290.305 27.72V26.28H302.437V27.72C301.693 27.768 301.093 27.876 300.637 28.044C300.205 28.188 299.869 28.452 299.629 28.836C299.389 29.22 299.221 29.748 299.125 30.42C299.053 31.068 299.017 31.896 299.017 32.904V47.376C299.017 48.504 299.053 49.404 299.125 50.076C299.221 50.724 299.401 51.228 299.665 51.588C299.953 51.948 300.337 52.2 300.817 52.344C301.321 52.464 301.981 52.536 302.797 52.56V54ZM316.215 38.664C317.751 38.664 318.987 38.616 319.923 38.52C320.859 38.424 321.579 38.232 322.083 37.944C322.611 37.632 322.983 37.188 323.199 36.612C323.415 36.036 323.583 35.256 323.703 34.272H325.035V44.82H323.703C323.559 43.86 323.367 43.092 323.127 42.516C322.887 41.94 322.503 41.508 321.975 41.22C321.447 40.908 320.727 40.716 319.815 40.644C318.927 40.548 317.727 40.5 316.215 40.5V47.916C316.215 48.684 316.311 49.332 316.503 49.86C316.719 50.388 317.067 50.82 317.547 51.156C318.027 51.468 318.663 51.696 319.455 51.84C320.247 51.96 321.219 52.02 322.371 52.02C323.739 52.02 324.891 51.924 325.827 51.732C326.787 51.54 327.579 51.204 328.203 50.724C328.827 50.244 329.331 49.608 329.715 48.816C330.099 48 330.423 46.98 330.687 45.756H332.127L331.551 54H307.143V52.56C307.935 52.536 308.583 52.464 309.087 52.344C309.591 52.224 309.975 52.02 310.239 51.732C310.503 51.444 310.683 51.036 310.779 50.508C310.875 49.98 310.923 49.296 310.923 48.456V31.824C310.923 30.984 310.875 30.312 310.779 29.808C310.707 29.28 310.551 28.872 310.311 28.584C310.071 28.272 309.723 28.068 309.267 27.972C308.835 27.852 308.259 27.768 307.539 27.72V26.28H330.291L330.543 33.336H328.995C328.851 32.328 328.623 31.5 328.311 30.852C327.999 30.18 327.567 29.652 327.015 29.268C326.463 28.86 325.743 28.584 324.855 28.44C323.991 28.272 322.923 28.188 321.651 28.188H317.583C316.959 28.188 316.575 28.272 316.431 28.44C316.287 28.584 316.215 28.944 316.215 29.52V38.664ZM201.579 92.268L209.895 71.28H220.407V72.72C219.615 72.72 218.967 72.804 218.463 72.972C217.983 73.116 217.611 73.392 217.347 73.8C217.083 74.208 216.903 74.772 216.807 75.492C216.735 76.188 216.699 77.076 216.699 78.156V92.124C216.699 93.324 216.747 94.272 216.843 94.968C216.939 95.664 217.131 96.204 217.419 96.588C217.707 96.972 218.115 97.224 218.643 97.344C219.195 97.464 219.915 97.536 220.803 97.56V99H207.267V97.56C208.155 97.536 208.863 97.464 209.391 97.344C209.943 97.2 210.363 96.948 210.651 96.588C210.963 96.228 211.167 95.724 211.263 95.076C211.359 94.404 211.407 93.504 211.407 92.376V75.528H211.227L201.543 99.36H198.879L188.871 75.528H188.727V92.124C188.727 93.324 188.775 94.272 188.871 94.968C188.967 95.664 189.159 96.204 189.447 96.588C189.735 96.972 190.143 97.224 190.671 97.344C191.223 97.464 191.943 97.536 192.831 97.56V99H181.743V97.56C182.631 97.536 183.351 97.464 183.903 97.344C184.455 97.2 184.875 96.948 185.163 96.588C185.475 96.228 185.679 95.724 185.775 95.076C185.871 94.404 185.919 93.504 185.919 92.376V77.904C185.919 76.896 185.871 76.056 185.775 75.384C185.679 74.712 185.499 74.184 185.235 73.8C184.971 73.392 184.587 73.116 184.083 72.972C183.603 72.804 182.955 72.72 182.139 72.72V71.28H193.047L201.435 92.268H201.579ZM241.702 90.612H231.514C230.386 93.156 229.822 94.92 229.822 95.904C229.822 96.624 230.086 97.08 230.614 97.272C231.166 97.464 231.982 97.56 233.062 97.56V99H223.198V97.56C223.774 97.488 224.266 97.392 224.674 97.272C225.106 97.152 225.478 96.984 225.79 96.768C226.126 96.552 226.414 96.276 226.654 95.94C226.894 95.58 227.122 95.148 227.338 94.644L236.806 70.92H239.47L248.074 91.944C248.578 93.168 248.998 94.128 249.334 94.824C249.694 95.52 250.066 96.06 250.45 96.444C250.858 96.804 251.314 97.056 251.818 97.2C252.346 97.344 253.018 97.452 253.834 97.524V99H240.226V97.524C241.378 97.476 242.206 97.356 242.71 97.164C243.214 96.972 243.466 96.588 243.466 96.012C243.466 95.676 243.382 95.244 243.214 94.716C243.046 94.188 242.818 93.54 242.53 92.772L241.702 90.612ZM232.342 88.452H240.91L236.77 77.544H236.626L232.342 88.452ZM278.696 99.36L262.748 76.644H262.604V92.124C262.604 93.324 262.64 94.272 262.712 94.968C262.808 95.664 262.988 96.204 263.252 96.588C263.54 96.972 263.924 97.224 264.404 97.344C264.908 97.464 265.556 97.536 266.348 97.56V99H255.656V97.56C256.544 97.536 257.252 97.464 257.78 97.344C258.332 97.2 258.752 96.948 259.04 96.588C259.352 96.228 259.556 95.724 259.652 95.076C259.748 94.404 259.796 93.504 259.796 92.376V77.904C259.796 76.896 259.748 76.068 259.652 75.42C259.556 74.748 259.376 74.22 259.112 73.836C258.848 73.452 258.464 73.188 257.96 73.044C257.48 72.876 256.832 72.768 256.016 72.72V71.28H266.06L280.568 92.088H280.712V78.156C280.712 76.98 280.664 76.044 280.568 75.348C280.496 74.628 280.316 74.076 280.028 73.692C279.764 73.308 279.38 73.056 278.876 72.936C278.396 72.816 277.76 72.744 276.968 72.72V71.28H287.66V72.72C286.772 72.744 286.052 72.828 285.5 72.972C284.972 73.092 284.552 73.332 284.24 73.692C283.952 74.052 283.76 74.568 283.664 75.24C283.568 75.912 283.52 76.8 283.52 77.904V99.36H278.696ZM304.379 99H291.527V97.56C292.343 97.536 292.991 97.464 293.471 97.344C293.975 97.2 294.359 96.948 294.623 96.588C294.887 96.228 295.067 95.724 295.163 95.076C295.259 94.404 295.307 93.504 295.307 92.376V77.904C295.307 76.896 295.259 76.068 295.163 75.42C295.091 74.748 294.935 74.22 294.695 73.836C294.455 73.452 294.107 73.188 293.651 73.044C293.219 72.876 292.631 72.768 291.887 72.72V71.28H304.019V72.72C303.275 72.768 302.675 72.876 302.219 73.044C301.787 73.188 301.451 73.452 301.211 73.836C300.971 74.22 300.803 74.748 300.707 75.42C300.635 76.068 300.599 76.896 300.599 77.904V92.376C300.599 93.504 300.635 94.404 300.707 95.076C300.803 95.724 300.983 96.228 301.247 96.588C301.535 96.948 301.919 97.2 302.399 97.344C302.903 97.464 303.563 97.536 304.379 97.56V99ZM325.501 90.612H315.313C314.185 93.156 313.621 94.92 313.621 95.904C313.621 96.624 313.885 97.08 314.413 97.272C314.965 97.464 315.781 97.56 316.861 97.56V99H306.997V97.56C307.573 97.488 308.065 97.392 308.473 97.272C308.905 97.152 309.277 96.984 309.589 96.768C309.925 96.552 310.213 96.276 310.453 95.94C310.693 95.58 310.921 95.148 311.137 94.644L320.605 70.92H323.269L331.873 91.944C332.377 93.168 332.797 94.128 333.133 94.824C333.493 95.52 333.865 96.06 334.249 96.444C334.657 96.804 335.113 97.056 335.617 97.2C336.145 97.344 336.817 97.452 337.633 97.524V99H324.025V97.524C325.177 97.476 326.005 97.356 326.509 97.164C327.013 96.972 327.265 96.588 327.265 96.012C327.265 95.676 327.181 95.244 327.013 94.716C326.845 94.188 326.617 93.54 326.329 92.772L325.501 90.612ZM316.141 88.452H324.709L320.569 77.544H320.425L316.141 88.452Z" fill="#36454F"/>
</svg>
