<svg width="95" height="92" viewBox="0 0 95 92" fill="none" xmlns="http://www.w3.org/2000/svg">
<path d="M0.916016 37.7336C0.916016 35.0939 3.05587 32.9541 5.69552 32.9541H90.2203C92.86 32.9541 94.9998 35.0939 94.9998 37.7336V86.9769C94.9998 89.6166 92.86 91.7564 90.2203 91.7564H5.69551C3.05587 91.7564 0.916016 89.6166 0.916016 86.9769V37.7336Z" fill="#36454F"/>
<path d="M58.5979 67.0174C60.3504 68.0292 60.3504 70.5587 58.5979 71.5705L44.4332 79.7485C42.6807 80.7603 40.4901 79.4955 40.4901 77.4719L40.4901 61.1159C40.4901 59.0923 42.6807 57.8276 44.4332 58.8394L58.5979 67.0174Z" fill="white"/>
<path d="M0.0902241 26.2997C-0.285531 24.8974 0.546679 23.4559 1.94902 23.0802L87.7487 0.0902241C89.151 -0.285531 90.5924 0.546678 90.9682 1.94902L93.2601 10.5024C93.6358 11.9047 92.8036 13.3462 91.4013 13.7219L5.60162 36.7119C4.19928 37.0876 2.75785 36.2554 2.3821 34.8531L0.0902241 26.2997Z" fill="#36454F"/>
<mask id="mask0_2_111" style="mask-type:alpha" maskUnits="userSpaceOnUse" x="0" y="32" width="95" height="16">
<path d="M0.916016 37.7336C0.916016 35.0939 3.05587 32.9541 5.69552 32.9541H90.2203C92.86 32.9541 94.9998 35.0939 94.9998 37.7336V47.0666H0.916016V37.7336Z" fill="#D9D9D9"/>
</mask>
<g mask="url(#mask0_2_111)">
<rect x="2.46997" y="18.1714" width="6.5648" height="30.1537" transform="rotate(9.68476 2.46997 18.1714)" fill="white"/>
<rect x="8.94116" y="19.2758" width="6.5648" height="30.1537" transform="rotate(9.68476 8.94116 19.2758)" fill="#36454F"/>
<rect x="15.4125" y="20.3802" width="6.5648" height="30.1537" transform="rotate(9.68476 15.4125 20.3802)" fill="white"/>
<rect x="21.8837" y="21.4845" width="6.5648" height="30.1537" transform="rotate(9.68476 21.8837 21.4845)" fill="#36454F"/>
<rect x="28.3549" y="22.5889" width="6.5648" height="30.1537" transform="rotate(9.68476 28.3549 22.5889)" fill="white"/>
<rect x="34.8262" y="23.6933" width="6.5648" height="30.1537" transform="rotate(9.68476 34.8262 23.6933)" fill="#36454F"/>
<rect x="41.2974" y="24.7977" width="6.5648" height="30.1537" transform="rotate(9.68476 41.2974 24.7977)" fill="white"/>
<rect x="47.7687" y="25.902" width="6.5648" height="30.1537" transform="rotate(9.68476 47.7687 25.902)" fill="#36454F"/>
<rect x="54.2399" y="27.0064" width="6.5648" height="30.1537" transform="rotate(9.68476 54.2399 27.0064)" fill="white"/>
<rect x="60.7111" y="28.1108" width="6.5648" height="30.1537" transform="rotate(9.68476 60.7111 28.1108)" fill="#36454F"/>
<rect x="67.1824" y="29.2152" width="6.5648" height="30.1537" transform="rotate(9.68476 67.1824 29.2152)" fill="white"/>
<rect x="73.6536" y="30.3196" width="6.5648" height="30.1537" transform="rotate(9.68476 73.6536 30.3196)" fill="#36454F"/>
<rect x="80.1249" y="31.4239" width="6.5648" height="30.1537" transform="rotate(9.68476 80.1249 31.4239)" fill="white"/>
<rect x="86.5961" y="32.5283" width="6.5648" height="30.1537" transform="rotate(9.68476 86.5961 32.5283)" fill="#36454F"/>
<rect x="93.0673" y="33.6327" width="6.5648" height="30.1537" transform="rotate(9.68476 93.0673 33.6327)" fill="white"/>
</g>
</svg>
