<svg width="372" height="125" viewBox="0 0 372 125" fill="none" xmlns="http://www.w3.org/2000/svg">
<path d="M0.916016 53.7336C0.916016 51.0939 3.05587 48.9541 5.69552 48.9541H90.2203C92.86 48.9541 94.9998 51.0939 94.9998 53.7336V102.977C94.9998 105.617 92.86 107.756 90.2203 107.756H5.69551C3.05587 107.756 0.916016 105.617 0.916016 102.977V53.7336Z" fill="white"/>
<path d="M58.5979 83.0174C60.3504 84.0292 60.3504 86.5587 58.5979 87.5705L44.4332 95.7485C42.6807 96.7603 40.4901 95.4955 40.4901 93.4719L40.4901 77.1159C40.4901 75.0923 42.6807 73.8276 44.4332 74.8394L58.5979 83.0174Z" fill="#36454F"/>
<path d="M0.0902241 42.2997C-0.285531 40.8974 0.546679 39.4559 1.94902 39.0802L87.7487 16.0902C89.151 15.7145 90.5924 16.5467 90.9682 17.949L93.2601 26.5024C93.6358 27.9047 92.8036 29.3462 91.4013 29.7219L5.60162 52.7119C4.19928 53.0876 2.75785 52.2554 2.3821 50.8531L0.0902241 42.2997Z" fill="white"/>
<mask id="mask0_76_112" style="mask-type:alpha" maskUnits="userSpaceOnUse" x="0" y="48" width="95" height="16">
<path d="M0.916016 53.7336C0.916016 51.0939 3.05587 48.9541 5.69552 48.9541H90.2203C92.86 48.9541 94.9998 51.0939 94.9998 53.7336V63.0666H0.916016V53.7336Z" fill="#D9D9D9"/>
</mask>
<g mask="url(#mask0_76_112)">
<rect x="2.46997" y="34.1714" width="6.5648" height="30.1537" transform="rotate(9.68476 2.46997 34.1714)" fill="#36454F"/>
<rect x="8.94116" y="35.2758" width="6.5648" height="30.1537" transform="rotate(9.68476 8.94116 35.2758)" fill="white"/>
<rect x="15.4125" y="36.3802" width="6.5648" height="30.1537" transform="rotate(9.68476 15.4125 36.3802)" fill="#36454F"/>
<rect x="21.8837" y="37.4845" width="6.5648" height="30.1537" transform="rotate(9.68476 21.8837 37.4845)" fill="white"/>
<rect x="28.3549" y="38.5889" width="6.5648" height="30.1537" transform="rotate(9.68476 28.3549 38.5889)" fill="#36454F"/>
<rect x="34.8262" y="39.6933" width="6.5648" height="30.1537" transform="rotate(9.68476 34.8262 39.6933)" fill="white"/>
<rect x="41.2974" y="40.7977" width="6.5648" height="30.1537" transform="rotate(9.68476 41.2974 40.7977)" fill="#36454F"/>
<rect x="47.7687" y="41.902" width="6.5648" height="30.1537" transform="rotate(9.68476 47.7687 41.902)" fill="white"/>
<rect x="54.2399" y="43.0064" width="6.5648" height="30.1537" transform="rotate(9.68476 54.2399 43.0064)" fill="#36454F"/>
<rect x="60.7111" y="44.1108" width="6.5648" height="30.1537" transform="rotate(9.68476 60.7111 44.1108)" fill="white"/>
<rect x="67.1824" y="45.2152" width="6.5648" height="30.1537" transform="rotate(9.68476 67.1824 45.2152)" fill="#36454F"/>
<rect x="73.6536" y="46.3196" width="6.5648" height="30.1537" transform="rotate(9.68476 73.6536 46.3196)" fill="white"/>
<rect x="80.1249" y="47.4239" width="6.5648" height="30.1537" transform="rotate(9.68476 80.1249 47.4239)" fill="#36454F"/>
<rect x="86.5961" y="48.5283" width="6.5648" height="30.1537" transform="rotate(9.68476 86.5961 48.5283)" fill="white"/>
<rect x="93.0673" y="49.6327" width="6.5648" height="30.1537" transform="rotate(9.68476 93.0673 49.6327)" fill="#36454F"/>
</g>
<line x1="151.845" y1="0.347933" x2="134.51" y2="123.696" stroke="white" stroke-width="5"/>
<path d="M201.579 46.9893L209.895 26.0013H220.407V27.4413C219.615 27.4413 218.967 27.5253 218.463 27.6933C217.983 27.8373 217.611 28.1133 217.347 28.5213C217.083 28.9293 216.903 29.4933 216.807 30.2133C216.735 30.9093 216.699 31.7973 216.699 32.8773V46.8453C216.699 48.0453 216.747 48.9933 216.843 49.6893C216.939 50.3853 217.131 50.9253 217.419 51.3093C217.707 51.6933 218.115 51.9453 218.643 52.0653C219.195 52.1853 219.915 52.2573 220.803 52.2813V53.7213H207.267V52.2813C208.155 52.2573 208.863 52.1853 209.391 52.0653C209.943 51.9213 210.363 51.6693 210.651 51.3093C210.963 50.9493 211.167 50.4453 211.263 49.7973C211.359 49.1253 211.407 48.2253 211.407 47.0973V30.2493H211.227L201.543 54.0813H198.879L188.871 30.2493H188.727V46.8453C188.727 48.0453 188.775 48.9933 188.871 49.6893C188.967 50.3853 189.159 50.9253 189.447 51.3093C189.735 51.6933 190.143 51.9453 190.671 52.0653C191.223 52.1853 191.943 52.2573 192.831 52.2813V53.7213H181.743V52.2813C182.631 52.2573 183.351 52.1853 183.903 52.0653C184.455 51.9213 184.875 51.6693 185.163 51.3093C185.475 50.9493 185.679 50.4453 185.775 49.7973C185.871 49.1253 185.919 48.2253 185.919 47.0973V32.6253C185.919 31.6173 185.871 30.7773 185.775 30.1053C185.679 29.4333 185.499 28.9053 185.235 28.5213C184.971 28.1133 184.587 27.8373 184.083 27.6933C183.603 27.5253 182.955 27.4413 182.139 27.4413V26.0013H193.047L201.435 46.9893H201.579ZM240.237 25.6413C242.397 25.6413 244.413 26.0133 246.285 26.7573C248.157 27.5013 249.777 28.5213 251.145 29.8173C252.537 31.1133 253.629 32.6373 254.421 34.3893C255.213 36.1413 255.609 38.0373 255.609 40.0773C255.609 42.0213 255.201 43.8453 254.385 45.5493C253.593 47.2533 252.501 48.7413 251.109 50.0133C249.741 51.2613 248.121 52.2573 246.249 53.0013C244.377 53.7213 242.373 54.0813 240.237 54.0813C238.101 54.0813 236.097 53.7213 234.225 53.0013C232.353 52.2573 230.721 51.2613 229.329 50.0133C227.937 48.7413 226.845 47.2533 226.053 45.5493C225.261 43.8453 224.865 42.0213 224.865 40.0773C224.865 38.0373 225.261 36.1413 226.053 34.3893C226.845 32.6373 227.925 31.1133 229.293 29.8173C230.685 28.5213 232.317 27.5013 234.189 26.7573C236.061 26.0133 238.077 25.6413 240.237 25.6413ZM240.237 51.7413C241.629 51.7413 242.889 51.4773 244.017 50.9493C245.145 50.3973 246.105 49.6293 246.897 48.6453C247.689 47.6373 248.289 46.4253 248.697 45.0093C249.129 43.5693 249.345 41.9613 249.345 40.1853C249.345 38.3133 249.129 36.6333 248.697 35.1453C248.289 33.6333 247.689 32.3493 246.897 31.2933C246.105 30.2133 245.145 29.3973 244.017 28.8453C242.889 28.2693 241.629 27.9813 240.237 27.9813C238.821 27.9813 237.549 28.2693 236.421 28.8453C235.317 29.3973 234.369 30.2133 233.577 31.2933C232.785 32.3493 232.173 33.6333 231.741 35.1453C231.333 36.6333 231.129 38.3133 231.129 40.1853C231.129 41.9613 231.333 43.5693 231.741 45.0093C232.173 46.4253 232.785 47.6373 233.577 48.6453C234.369 49.6293 235.317 50.3973 236.421 50.9493C237.549 51.4773 238.821 51.7413 240.237 51.7413ZM273.649 47.5293L278.329 35.5413C278.785 34.3653 279.145 33.4053 279.409 32.6613C279.697 31.9173 279.913 31.3053 280.057 30.8253C280.201 30.3453 280.297 29.9613 280.345 29.6733C280.393 29.3853 280.417 29.1093 280.417 28.8453C280.417 28.2693 280.201 27.8973 279.769 27.7293C279.337 27.5373 278.473 27.4413 277.177 27.4413V26.0013H287.401V27.4413C285.409 27.4413 284.029 28.4133 283.261 30.3573L273.793 54.0813H271.129L262.525 33.0573C262.045 31.9293 261.613 31.0053 261.229 30.2853C260.845 29.5653 260.437 29.0013 260.005 28.5933C259.573 28.1613 259.093 27.8733 258.565 27.7293C258.061 27.5613 257.461 27.4773 256.765 27.4773V26.0013H270.373V27.4773C269.749 27.5013 269.221 27.5373 268.789 27.5853C268.381 27.6333 268.057 27.7173 267.817 27.8373C267.577 27.9333 267.409 28.0773 267.313 28.2693C267.217 28.4373 267.169 28.6533 267.169 28.9173C267.169 29.2533 267.229 29.6493 267.349 30.1053C267.469 30.5613 267.649 31.1133 267.889 31.7613L273.649 47.5293ZM302.797 53.7213H289.945V52.2813C290.761 52.2573 291.409 52.1853 291.889 52.0653C292.393 51.9213 292.777 51.6693 293.041 51.3093C293.305 50.9493 293.485 50.4453 293.581 49.7973C293.677 49.1253 293.725 48.2253 293.725 47.0973V32.6253C293.725 31.6173 293.677 30.7893 293.581 30.1413C293.509 29.4693 293.353 28.9413 293.113 28.5573C292.873 28.1733 292.525 27.9093 292.069 27.7653C291.637 27.5973 291.049 27.4893 290.305 27.4413V26.0013H302.437V27.4413C301.693 27.4893 301.093 27.5973 300.637 27.7653C300.205 27.9093 299.869 28.1733 299.629 28.5573C299.389 28.9413 299.221 29.4693 299.125 30.1413C299.053 30.7893 299.017 31.6173 299.017 32.6253V47.0973C299.017 48.2253 299.053 49.1253 299.125 49.7973C299.221 50.4453 299.401 50.9493 299.665 51.3093C299.953 51.6693 300.337 51.9213 300.817 52.0653C301.321 52.1853 301.981 52.2573 302.797 52.2813V53.7213ZM316.215 38.3853C317.751 38.3853 318.987 38.3373 319.923 38.2413C320.859 38.1453 321.579 37.9533 322.083 37.6653C322.611 37.3533 322.983 36.9093 323.199 36.3333C323.415 35.7573 323.583 34.9773 323.703 33.9933H325.035V44.5413H323.703C323.559 43.5813 323.367 42.8133 323.127 42.2373C322.887 41.6613 322.503 41.2293 321.975 40.9413C321.447 40.6293 320.727 40.4373 319.815 40.3653C318.927 40.2693 317.727 40.2213 316.215 40.2213V47.6373C316.215 48.4053 316.311 49.0533 316.503 49.5813C316.719 50.1093 317.067 50.5413 317.547 50.8773C318.027 51.1893 318.663 51.4173 319.455 51.5613C320.247 51.6813 321.219 51.7413 322.371 51.7413C323.739 51.7413 324.891 51.6453 325.827 51.4533C326.787 51.2613 327.579 50.9253 328.203 50.4453C328.827 49.9653 329.331 49.3293 329.715 48.5373C330.099 47.7213 330.423 46.7013 330.687 45.4773H332.127L331.551 53.7213H307.143V52.2813C307.935 52.2573 308.583 52.1853 309.087 52.0653C309.591 51.9453 309.975 51.7413 310.239 51.4533C310.503 51.1653 310.683 50.7573 310.779 50.2293C310.875 49.7013 310.923 49.0173 310.923 48.1773V31.5453C310.923 30.7053 310.875 30.0333 310.779 29.5293C310.707 29.0013 310.551 28.5933 310.311 28.3053C310.071 27.9933 309.723 27.7893 309.267 27.6933C308.835 27.5733 308.259 27.4893 307.539 27.4413V26.0013H330.291L330.543 33.0573H328.995C328.851 32.0493 328.623 31.2213 328.311 30.5733C327.999 29.9013 327.567 29.3733 327.015 28.9893C326.463 28.5813 325.743 28.3053 324.855 28.1613C323.991 27.9933 322.923 27.9093 321.651 27.9093H317.583C316.959 27.9093 316.575 27.9933 316.431 28.1613C316.287 28.3053 316.215 28.6653 316.215 29.2413V38.3853ZM201.579 91.9893L209.895 71.0013H220.407V72.4413C219.615 72.4413 218.967 72.5253 218.463 72.6933C217.983 72.8373 217.611 73.1133 217.347 73.5213C217.083 73.9293 216.903 74.4933 216.807 75.2133C216.735 75.9093 216.699 76.7973 216.699 77.8773V91.8453C216.699 93.0453 216.747 93.9933 216.843 94.6893C216.939 95.3853 217.131 95.9253 217.419 96.3093C217.707 96.6933 218.115 96.9453 218.643 97.0653C219.195 97.1853 219.915 97.2573 220.803 97.2813V98.7213H207.267V97.2813C208.155 97.2573 208.863 97.1853 209.391 97.0653C209.943 96.9213 210.363 96.6693 210.651 96.3093C210.963 95.9493 211.167 95.4453 211.263 94.7973C211.359 94.1253 211.407 93.2253 211.407 92.0973V75.2493H211.227L201.543 99.0813H198.879L188.871 75.2493H188.727V91.8453C188.727 93.0453 188.775 93.9933 188.871 94.6893C188.967 95.3853 189.159 95.9253 189.447 96.3093C189.735 96.6933 190.143 96.9453 190.671 97.0653C191.223 97.1853 191.943 97.2573 192.831 97.2813V98.7213H181.743V97.2813C182.631 97.2573 183.351 97.1853 183.903 97.0653C184.455 96.9213 184.875 96.6693 185.163 96.3093C185.475 95.9493 185.679 95.4453 185.775 94.7973C185.871 94.1253 185.919 93.2253 185.919 92.0973V77.6253C185.919 76.6173 185.871 75.7773 185.775 75.1053C185.679 74.4333 185.499 73.9053 185.235 73.5213C184.971 73.1133 184.587 72.8373 184.083 72.6933C183.603 72.5253 182.955 72.4413 182.139 72.4413V71.0013H193.047L201.435 91.9893H201.579ZM241.702 90.3333H231.514C230.386 92.8773 229.822 94.6413 229.822 95.6253C229.822 96.3453 230.086 96.8013 230.614 96.9933C231.166 97.1853 231.982 97.2813 233.062 97.2813V98.7213H223.198V97.2813C223.774 97.2093 224.266 97.1133 224.674 96.9933C225.106 96.8733 225.478 96.7053 225.79 96.4893C226.126 96.2733 226.414 95.9973 226.654 95.6613C226.894 95.3013 227.122 94.8693 227.338 94.3653L236.806 70.6413H239.47L248.074 91.6653C248.578 92.8893 248.998 93.8493 249.334 94.5453C249.694 95.2413 250.066 95.7813 250.45 96.1653C250.858 96.5253 251.314 96.7773 251.818 96.9213C252.346 97.0653 253.018 97.1733 253.834 97.2453V98.7213H240.226V97.2453C241.378 97.1973 242.206 97.0773 242.71 96.8853C243.214 96.6933 243.466 96.3093 243.466 95.7333C243.466 95.3973 243.382 94.9653 243.214 94.4373C243.046 93.9093 242.818 93.2613 242.53 92.4933L241.702 90.3333ZM232.342 88.1733H240.91L236.77 77.2653H236.626L232.342 88.1733ZM278.696 99.0813L262.748 76.3653H262.604V91.8453C262.604 93.0453 262.64 93.9933 262.712 94.6893C262.808 95.3853 262.988 95.9253 263.252 96.3093C263.54 96.6933 263.924 96.9453 264.404 97.0653C264.908 97.1853 265.556 97.2573 266.348 97.2813V98.7213H255.656V97.2813C256.544 97.2573 257.252 97.1853 257.78 97.0653C258.332 96.9213 258.752 96.6693 259.04 96.3093C259.352 95.9493 259.556 95.4453 259.652 94.7973C259.748 94.1253 259.796 93.2253 259.796 92.0973V77.6253C259.796 76.6173 259.748 75.7893 259.652 75.1413C259.556 74.4693 259.376 73.9413 259.112 73.5573C258.848 73.1733 258.464 72.9093 257.96 72.7653C257.48 72.5973 256.832 72.4893 256.016 72.4413V71.0013H266.06L280.568 91.8093H280.712V77.8773C280.712 76.7013 280.664 75.7653 280.568 75.0693C280.496 74.3493 280.316 73.7973 280.028 73.4133C279.764 73.0293 279.38 72.7773 278.876 72.6573C278.396 72.5373 277.76 72.4653 276.968 72.4413V71.0013H287.66V72.4413C286.772 72.4653 286.052 72.5493 285.5 72.6933C284.972 72.8133 284.552 73.0533 284.24 73.4133C283.952 73.7733 283.76 74.2893 283.664 74.9613C283.568 75.6333 283.52 76.5213 283.52 77.6253V99.0813H278.696ZM304.379 98.7213H291.527V97.2813C292.343 97.2573 292.991 97.1853 293.471 97.0653C293.975 96.9213 294.359 96.6693 294.623 96.3093C294.887 95.9493 295.067 95.4453 295.163 94.7973C295.259 94.1253 295.307 93.2253 295.307 92.0973V77.6253C295.307 76.6173 295.259 75.7893 295.163 75.1413C295.091 74.4693 294.935 73.9413 294.695 73.5573C294.455 73.1733 294.107 72.9093 293.651 72.7653C293.219 72.5973 292.631 72.4893 291.887 72.4413V71.0013H304.019V72.4413C303.275 72.4893 302.675 72.5973 302.219 72.7653C301.787 72.9093 301.451 73.1733 301.211 73.5573C300.971 73.9413 300.803 74.4693 300.707 75.1413C300.635 75.7893 300.599 76.6173 300.599 77.6253V92.0973C300.599 93.2253 300.635 94.1253 300.707 94.7973C300.803 95.4453 300.983 95.9493 301.247 96.3093C301.535 96.6693 301.919 96.9213 302.399 97.0653C302.903 97.1853 303.563 97.2573 304.379 97.2813V98.7213ZM325.501 90.3333H315.313C314.185 92.8773 313.621 94.6413 313.621 95.6253C313.621 96.3453 313.885 96.8013 314.413 96.9933C314.965 97.1853 315.781 97.2813 316.861 97.2813V98.7213H306.997V97.2813C307.573 97.2093 308.065 97.1133 308.473 96.9933C308.905 96.8733 309.277 96.7053 309.589 96.4893C309.925 96.2733 310.213 95.9973 310.453 95.6613C310.693 95.3013 310.921 94.8693 311.137 94.3653L320.605 70.6413H323.269L331.873 91.6653C332.377 92.8893 332.797 93.8493 333.133 94.5453C333.493 95.2413 333.865 95.7813 334.249 96.1653C334.657 96.5253 335.113 96.7773 335.617 96.9213C336.145 97.0653 336.817 97.1733 337.633 97.2453V98.7213H324.025V97.2453C325.177 97.1973 326.005 97.0773 326.509 96.8853C327.013 96.6933 327.265 96.3093 327.265 95.7333C327.265 95.3973 327.181 94.9653 327.013 94.4373C326.845 93.9093 326.617 93.2613 326.329 92.4933L325.501 90.3333ZM316.141 88.1733H324.709L320.569 77.2653H320.425L316.141 88.1733Z" fill="white"/>
</svg>
